<svg width="520" height="200" viewBox="0 0 520 200" fill="none" xmlns="http://www.w3.org/2000/svg">
<path d="M386.516 26.416C388.173 26.416 389.516 27.7592 389.516 29.416V182.313C389.516 183.97 388.173 185.313 386.516 185.313H359.523C357.867 185.313 356.523 183.97 356.523 182.313V29.416C356.523 27.7592 357.867 26.416 359.523 26.416H386.516Z" fill="black"/>
<path d="M340.305 66.1426C341.962 66.1426 343.305 67.4857 343.305 69.1426V182.313C343.305 183.97 341.962 185.313 340.305 185.313H313.313C311.656 185.313 310.312 183.97 310.312 182.313V69.1426C310.312 67.4857 311.656 66.1426 313.312 66.1426H340.305Z" fill="black"/>
<path d="M422.695 66.1426C411.65 66.1426 402.695 75.0969 402.695 86.1426V182.313C402.695 183.97 404.038 185.313 405.695 185.313H432.688C434.345 185.313 435.688 183.97 435.688 182.313V104.245C435.688 101.484 437.927 99.2454 440.688 99.2454H463.648C466.409 99.2454 468.648 101.484 468.648 104.245V182.313C468.648 183.97 469.991 185.313 471.648 185.313H498.641C500.298 185.313 501.641 183.97 501.641 182.313V86.1426C501.641 75.0969 492.687 66.1426 481.641 66.1426H422.695Z" fill="black"/>
<path d="M326.818 17.7458C316.803 17.7458 308.672 25.8678 308.672 35.8909C308.672 45.914 316.803 54.0359 326.818 54.0359C336.833 54.0359 344.964 45.914 344.964 35.8909C344.964 25.8678 336.833 17.7458 326.818 17.7458Z" fill="black"/>
<path d="M32.2319 87.0359C33.4048 85.8629 35.3071 85.8645 36.4781 87.0394L92.9294 143.678C94.1017 144.854 96.0067 144.854 97.179 143.678L153.629 87.0411C154.8 85.8662 156.702 85.8646 157.875 87.0375L170.708 99.8702C175.394 104.557 175.394 112.154 170.708 116.841L103.538 184.011C98.8518 188.697 91.2538 188.697 86.5675 184.011L19.3975 116.841C14.7112 112.154 14.7112 104.557 19.3975 99.8702L32.2319 87.0359Z" fill="black"/>
<path d="M69.194 96.8642C68.0216 98.0405 66.1167 98.0405 64.9443 96.8642L45.8252 77.6816C44.657 76.5095 44.6586 74.6127 45.8288 73.4425L86.571 32.7003C91.2573 28.014 98.8553 28.014 103.542 32.7003L144.285 73.4442C145.456 74.6144 145.457 76.5112 144.289 77.6833L125.171 96.8642C123.999 98.0405 122.094 98.0405 120.922 96.8642L97.1825 73.0465C96.0102 71.8703 94.1052 71.8703 92.9329 73.0465L69.194 96.8642Z" fill="#FF6521"/>
<path d="M268.688 126.759C268.259 126.112 268.242 125.276 268.646 124.613L301.463 70.6906C302.68 68.6914 301.241 66.1309 298.901 66.1309L269.624 66.1142C268.577 66.1136 267.611 66.6496 267.066 67.544C259.77 79.5238 252.564 91.5632 245.155 103.473C243.03 106.89 237.759 105.379 237.759 101.356V34.3882C237.759 32.7314 236.425 31.4062 234.768 31.4062H207.761C206.104 31.4062 204.766 32.7252 204.766 34.382V182.371C204.766 184.028 206.109 185.318 207.766 185.318H234.759C236.415 185.318 237.759 183.975 237.759 182.318V148.137C237.759 144.109 243.045 142.606 245.191 146.014C253.278 158.86 261.969 171.353 270.368 183.996C270.924 184.833 271.862 185.336 272.867 185.336L301.987 185.336C304.38 185.336 305.81 182.671 304.487 180.677C292.558 162.702 280.623 144.731 268.688 126.759Z" fill="black"/>
</svg>
