<?xml version="1.0" standalone="no"?>
<!DOCTYPE svg PUBLIC "-//W3C//DTD SVG 20010904//EN"
 "http://www.w3.org/TR/2001/REC-SVG-20010904/DTD/svg10.dtd">
<svg version="1.0" xmlns="http://www.w3.org/2000/svg"
 width="1683.000000pt" height="1190.000000pt" viewBox="0 0 1683.000000 1190.000000"
 preserveAspectRatio="xMidYMid meet">

<g transform="translate(0.000000,1190.000000) scale(0.100000,-0.100000)"
fill="#000000" stroke="none">
<path d="M13526 8199 c-3 -19 -13 -126 -21 -239 -31 -396 -89 -573 -212 -642
-29 -16 -53 -33 -53 -37 0 -4 23 -29 51 -56 28 -28 61 -68 74 -90 49 -82 114
-363 136 -582 11 -112 21 -155 33 -143 3 3 16 107 31 232 14 124 34 260 45
301 33 131 93 229 176 289 24 17 44 37 44 45 0 7 -24 24 -52 37 -80 35 -120
86 -148 187 -35 129 -48 218 -60 414 -11 181 -25 303 -34 312 -2 3 -7 -10 -10
-28z"/>
<path d="M1036 8095 c-108 -21 -251 -70 -307 -106 -162 -103 -253 -302 -235
-509 14 -146 68 -256 174 -350 84 -75 165 -111 478 -215 358 -119 423 -153
478 -255 25 -46 28 -59 25 -129 -3 -65 -9 -85 -34 -126 -67 -108 -202 -167
-385 -168 -201 -1 -382 74 -531 219 l-65 65 -105 -91 c-57 -50 -106 -96 -107
-101 -7 -18 110 -140 182 -191 260 -185 577 -238 914 -153 132 34 211 75 293
152 91 86 135 172 157 308 26 162 -1 313 -77 426 -84 125 -227 204 -551 305
-391 122 -488 180 -520 312 -12 52 -2 119 25 171 52 102 230 171 410 158 138
-10 310 -77 425 -166 19 -15 40 -31 47 -35 10 -5 79 77 181 215 11 15 3 24
-65 74 -104 76 -238 140 -359 171 -126 33 -328 41 -448 19z"/>
<path d="M4392 8092 c-10 -7 -731 -2089 -732 -2114 0 -11 338 -10 344 1 4 5
44 127 90 272 46 144 90 266 98 270 17 11 739 11 755 1 7 -5 51 -126 97 -269
46 -144 87 -266 91 -272 7 -12 335 -16 335 -5 0 27 -696 2102 -708 2112 -18
14 -348 17 -370 4z m328 -822 c79 -250 145 -461 147 -467 4 -10 -58 -13 -291
-13 -260 0 -296 2 -296 15 0 16 277 902 287 918 3 5 6 7 8 5 1 -2 67 -208 145
-458z"/>
<path d="M2308 8075 c-5 -5 -8 -480 -8 -1057 l0 -1048 160 0 160 0 0 399 c0
354 2 400 16 405 9 3 117 6 240 6 257 0 338 12 449 64 133 63 219 154 268 284
19 52 21 77 21 277 1 238 -5 279 -61 390 -36 70 -144 173 -223 212 -124 62
-144 64 -600 70 -228 3 -418 2 -422 -2z m815 -306 c57 -19 121 -80 146 -140
21 -48 22 -64 19 -234 -3 -182 -3 -182 -32 -223 -19 -28 -47 -51 -85 -69 -56
-28 -57 -28 -298 -31 l-243 -3 0 362 0 362 228 -6 c145 -3 241 -10 265 -18z"/>
<path d="M5760 7026 l0 -1056 160 0 160 0 0 440 0 440 163 0 c144 0 166 -2
179 -17 9 -10 119 -206 244 -436 163 -298 235 -419 249 -423 11 -2 93 -3 182
-2 l163 3 -250 449 -249 450 87 36 c189 78 293 189 321 344 14 75 14 310 1
396 -24 149 -124 285 -262 353 -139 69 -150 70 -675 74 l-473 4 0 -1055z m941
733 c66 -31 123 -87 141 -138 8 -23 13 -87 13 -176 0 -158 -9 -186 -81 -240
-74 -57 -128 -65 -425 -65 l-269 0 0 326 0 325 283 -3 c280 -3 282 -3 338 -29z"/>
<path d="M8763 8062 c-18 -9 -208 -201 -422 -427 -214 -225 -403 -420 -420
-433 l-31 -23 0 446 0 445 -160 0 -160 0 0 -1050 0 -1050 160 0 160 0 0 373 0
372 78 77 77 77 390 -447 390 -447 218 -3 c119 -1 217 1 217 5 0 5 -223 260
-495 568 -273 308 -494 562 -493 566 2 4 185 197 408 430 223 233 429 450 459
482 l54 57 -199 0 c-170 0 -204 -3 -231 -18z"/>
<path d="M9512 7028 l3 -1053 643 -3 642 -2 0 145 0 145 -485 0 -485 0 0 910
0 910 -160 0 -160 0 2 -1052z"/>
<path d="M11060 7020 l0 -1050 605 0 605 0 0 145 0 145 -445 0 -445 0 0 330 0
330 350 0 351 0 -3 138 -3 137 -347 3 -348 2 0 295 0 295 415 0 415 0 0 140 0
140 -575 0 -575 0 0 -1050z"/>
<path d="M15426 7957 c-3 -18 -10 -156 -16 -307 -21 -582 -55 -888 -129 -1150
-64 -227 -143 -374 -270 -500 -91 -91 -168 -138 -291 -179 -36 -12 -76 -30
-89 -40 l-23 -18 28 -20 c16 -10 58 -32 94 -47 219 -93 366 -288 478 -636 86
-265 118 -479 187 -1244 8 -93 18 -172 21 -175 19 -20 30 55 69 489 48 523 82
715 170 970 119 340 303 529 595 609 41 11 83 29 93 40 19 19 19 19 -2 30 -11
7 -64 23 -117 36 -384 97 -582 367 -664 900 -26 174 -47 396 -65 710 -24 404
-40 565 -55 565 -4 0 -11 -15 -14 -33z"/>
<path d="M14196 6123 c-3 -16 -17 -165 -31 -333 -31 -371 -39 -437 -70 -565
-55 -230 -139 -368 -261 -427 -24 -12 -46 -28 -49 -36 -3 -8 24 -43 70 -89
162 -163 235 -395 299 -962 14 -117 29 -218 34 -223 18 -18 31 52 62 337 17
154 38 314 46 356 17 91 61 224 98 296 28 57 134 176 190 214 73 49 64 84 -30
116 -131 44 -229 224 -263 481 -8 58 -71 820 -71 856 0 19 -19 2 -24 -21z"/>
<path d="M5870 5516 l0 -235 -144 -3 c-80 -2 -147 -6 -151 -10 -4 -3 -9 -25
-12 -47 -9 -68 -1 -71 163 -71 l143 0 3 -602 3 -603 23 -57 c31 -76 99 -150
170 -185 50 -25 71 -28 170 -32 123 -4 215 12 303 53 l47 21 -20 52 -20 52
-33 -13 c-72 -30 -185 -48 -273 -44 -125 6 -188 43 -229 133 -17 37 -18 87
-21 633 l-3 592 236 0 235 0 0 65 0 65 -235 0 -235 0 0 235 0 235 -60 0 -60 0
0 -234z"/>
<path d="M2750 5290 c-236 -61 -405 -215 -445 -407 -18 -81 -21 -665 -5 -778
38 -262 270 -435 620 -461 198 -15 477 57 588 153 l32 28 -32 40 -32 41 -95
-48 c-136 -69 -227 -90 -381 -91 -96 -1 -146 4 -215 21 -224 55 -335 159 -364
342 -14 87 -14 287 0 296 6 3 243 39 527 80 285 40 532 76 550 79 l32 6 0 132
c0 206 -38 317 -142 419 -142 140 -419 204 -638 148z m330 -126 c133 -38 247
-129 295 -235 28 -64 45 -201 27 -227 -6 -8 -167 -35 -463 -77 -250 -35 -471
-67 -491 -70 l-38 -5 0 77 c1 141 16 267 38 309 24 45 109 131 167 166 131 81
312 105 465 62z"/>
<path d="M4545 5294 c-145 -30 -281 -119 -386 -252 -34 -42 -65 -78 -70 -80
-5 -2 -9 66 -9 152 l0 156 -55 0 -55 0 0 -795 0 -795 60 0 59 0 3 553 3 552
34 62 c42 79 146 188 230 242 162 104 400 129 555 58 107 -49 183 -150 205
-271 7 -39 11 -262 11 -628 l0 -568 60 0 60 0 0 588 c0 648 -2 672 -61 783
-60 111 -189 208 -326 243 -75 20 -223 20 -318 0z"/>
<path d="M9200 5300 c-131 -28 -234 -119 -321 -283 l-38 -72 -1 157 c0 178 0
178 -79 178 l-41 0 0 -800 0 -800 59 0 60 0 4 523 c4 584 3 572 78 717 52 101
114 169 191 211 63 34 64 34 185 33 l123 -1 5 36 c4 20 9 48 11 62 4 21 0 28
-18 33 -44 11 -173 15 -218 6z"/>
<path d="M10150 5299 c-256 -45 -442 -193 -495 -394 -22 -86 -22 -763 0 -850
61 -233 286 -387 603 -411 145 -11 368 29 485 87 58 28 137 82 137 93 0 4 -14
25 -30 47 l-31 38 -46 -29 c-64 -41 -199 -88 -307 -106 -207 -36 -468 24 -590
136 -27 25 -60 70 -79 109 -32 65 -32 67 -35 237 l-4 171 34 6 c18 4 258 38
533 77 275 39 510 73 523 75 22 5 22 8 22 154 0 169 -14 234 -70 321 -65 101
-191 188 -326 224 -73 20 -250 28 -324 15z m293 -139 c168 -52 283 -178 307
-337 13 -88 3 -125 -36 -135 -16 -5 -225 -35 -464 -68 -239 -33 -448 -62 -464
-65 l-28 -5 4 163 c3 153 5 166 31 219 58 119 210 217 383 248 69 12 192 3
267 -20z"/>
<path d="M11600 5296 c-181 -39 -279 -107 -339 -235 -23 -49 -26 -69 -26 -156
0 -88 3 -107 27 -158 35 -73 111 -148 191 -186 34 -16 154 -63 267 -106 285
-107 383 -155 420 -207 40 -55 53 -108 48 -193 -13 -194 -156 -289 -433 -288
-189 1 -353 55 -478 157 -33 26 -60 46 -61 44 -19 -26 -46 -79 -46 -89 1 -24
121 -110 215 -155 133 -62 206 -78 360 -77 271 0 438 81 522 251 37 74 38 79
38 186 0 101 -3 116 -29 174 -32 70 -94 132 -180 181 -29 17 -154 67 -277 112
-264 96 -362 143 -411 197 -88 97 -69 287 35 363 68 49 165 73 292 73 134 0
192 -15 333 -90 57 -30 107 -54 111 -54 9 0 51 95 51 115 0 17 -159 89 -266
120 -111 33 -267 41 -364 21z"/>
<path d="M630 5271 c0 -10 607 -1516 627 -1554 7 -15 26 -32 40 -38 30 -11 90
-2 96 14 3 7 147 364 321 794 174 430 316 784 316 787 0 3 -26 6 -58 6 -44 0
-63 -5 -74 -17 -8 -10 -138 -325 -288 -700 -151 -376 -276 -683 -280 -683 -3
0 -132 311 -285 691 -170 419 -287 695 -297 700 -21 11 -118 12 -118 0z"/>
<path d="M6938 5273 c-17 -4 -18 -41 -18 -588 0 -553 1 -586 20 -647 53 -173
217 -319 420 -374 88 -24 280 -24 370 0 229 62 402 231 440 431 7 41 10 233 8
615 l-3 554 -32 9 c-17 5 -43 7 -57 3 l-26 -6 0 -550 c0 -368 -4 -566 -11
-602 -34 -160 -164 -284 -350 -334 -95 -25 -246 -23 -329 6 -173 59 -284 166
-320 313 -8 31 -12 225 -13 609 l-2 563 -40 2 c-22 0 -48 -1 -57 -4z"/>
</g>
</svg>
